<svg xmlns="http://www.w3.org/2000/svg" xmlns:xlink="http://www.w3.org/1999/xlink" viewBox="0 0 248.51 156.53"><defs><style>.cls-1,.cls-2,.cls-5{fill:none;}.cls-2{stroke:#1d1d1b;stroke-width:0.1px;}.cls-2,.cls-5{stroke-miterlimit:10;}.cls-3{fill:#178775;}.cls-4{font-size:14px;}.cls-4,.cls-9{fill:#fff;}.cls-4,.cls-6{font-family:Poppins-SemiBold, Poppins;}.cls-4,.cls-6,.cls-9{font-weight:600;}.cls-5{stroke:#060708;stroke-width:0.25px;}.cls-6,.cls-7{font-size:7px;fill:#1d1d1b;}.cls-7{font-family:Poppins-Light, Poppins;font-weight:300;}.cls-8{clip-path:url(#clip-path);}.cls-9{font-size:5px;font-family:Poppins-SemiBoldItalic, Poppins;font-style:italic;}</style><clipPath id="clip-path"><rect class="cls-1" x="74.37" y="118.52" width="26.11" height="26.11"/></clipPath></defs><title>Fichier 7</title><g id="Calque_2" data-name="Calque 2"><g id="Calque_1-2" data-name="Calque 1"><image width="757" height="330" transform="translate(97.08 117.92) scale(0.09)" xlink:href="../../entete2.png"/><rect class="cls-2" x="0.29" y="0.57" width="247.46" height="155.91"/><rect class="cls-3" width="248.51" height="20.84"/><text class="cls-4" transform="translate(45.32 16.26)">PERSONNES ASSUREES</text><path class="cls-3" d="M30.59,146.37H216a4,4,0,0,1,4,4v5.8a0,0,0,0,1,0,0H26.64a0,0,0,0,1,0,0v-5.8A4,4,0,0,1,30.59,146.37Z"/><rect class="cls-5" x="9.63" y="27.18" width="229.85" height="89.4" rx="9.49"/><line class="cls-5" x1="10.07" y1="47.9" x2="238.73" y2="47.51"/><line class="cls-5" x1="9.82" y1="65.87" x2="238.68" y2="65.47"/><line class="cls-5" x1="9.82" y1="83.84" x2="238.68" y2="83.44"/><line class="cls-5" x1="10.62" y1="100.05" x2="239.47" y2="99.66"/><line class="cls-5" x1="122.51" y1="27.08" x2="122.06" y2="115.82"/><line class="cls-5" x1="183.54" y1="26.7" x2="183.1" y2="116.77"/><text class="cls-6" transform="translate(32.42 40.95) scale(0.97 1)">Nom &amp; Prénom(s)</text><text class="cls-6" transform="translate(138.46 38.18) scale(0.97 1)">Date de<tspan x="-4.66" y="7">naissance</tspan></text><text class="cls-7" transform="translate(33.91 58.35) scale(1.09 1)">SOME Annick</text><text class="cls-7" transform="translate(16.7 76.55) scale(1.09 1)">ZOUNDI Wendyam Jacob</text><text class="cls-7" transform="translate(16.49 94.75) scale(1.09 1)">ZOUNDI Relwendé Jacobi</text><text class="cls-7" transform="translate(16.23 110.04) scale(1.09 1)">ZOUNDI Relwendé Lyvine</text><text class="cls-7" transform="translate(133.65 58.02) scale(1.09 1)">01/11/1998</text><text class="cls-7" transform="translate(134.44 77.8) scale(1.09 1)">15/11/2019</text><text class="cls-7" transform="translate(135.23 94.58) scale(1.09 1)">15/11/2019</text><text class="cls-7" transform="translate(135.02 111.36) scale(1.09 1)">15/11/2021</text><text class="cls-6" transform="translate(192.57 40.19) scale(0.97 1)">Affiliation</text><text class="cls-6" transform="translate(190.1 59.87) scale(0.97 1)">Conjointe</text><text class="cls-6" transform="translate(196.26 76.16) scale(0.97 1)">Enfant</text><text class="cls-6" transform="translate(196.79 92.46) scale(0.97 1)">Enfant</text><text class="cls-6" transform="translate(197.31 108.76) scale(0.97 1)">Enfant</text><g class="cls-8"><image width="300" height="300" transform="translate(71.97 116.52) scale(0.1)" xlink:href="../../MrZ_docs/frame.png"/></g><text class="cls-9" transform="translate(39.11 153.21) scale(1.09 1)">www.saphirmutuelle.com</text><text class="cls-9" transform="translate(118.77 152.94) scale(1.09 1)">+226 72 81 49 50 / 25 65 90 39</text></g></g></svg>