<svg xmlns="http://www.w3.org/2000/svg" xmlns:xlink="http://www.w3.org/1999/xlink" viewBox="0 0 269.8 160.3"><defs><style>.cls-1,.cls-2{fill:none;stroke-miterlimit:10;}.cls-1{stroke:#178775;}.cls-2{stroke:#1d1d1b;stroke-width:0.1px;}.cls-3{fill:#178775;}.cls-4{font-size:15.76px;}.cls-12,.cls-4,.cls-5{fill:#fff;}.cls-4,.cls-5,.cls-7,.cls-8{font-family:Poppins-SemiBold, Poppins;}.cls-12,.cls-4,.cls-5,.cls-7,.cls-8{font-weight:600;}.cls-5{font-size:8.77px;}.cls-10,.cls-11,.cls-6{font-size:8px;}.cls-10,.cls-6{fill:#1d1d1b;}.cls-6{font-family:Poppins-Light, Poppins;font-weight:300;}.cls-8{letter-spacing:0em;}.cls-9{clip-path:url(#clip-path);}.cls-10,.cls-11{font-family:Poppins-Medium, Poppins;font-weight:500;}.cls-11{fill:#e11b18;}.cls-12{font-size:5px;font-family:Poppins-SemiBoldItalic, Poppins;font-style:italic;}</style><clipPath id="clip-path"><circle class="cls-1" cx="208.9" cy="67.12" r="30.99"/></clipPath></defs><title>Fichier 4</title><g id="Calque_2" data-name="Calque 2"><g id="Calque_1-2" data-name="Calque 1"><rect class="cls-2" x="0.29" y="0.57" width="247.46" height="155.91"/><rect class="cls-3" width="248.51" height="33.21"/><path class="cls-3" d="M12.22,40,3.5,31.34a3.42,3.42,0,0,1,.2-5.12L14,17.4a4.19,4.19,0,0,1,5.57.19l8.72,8.63a3.42,3.42,0,0,1-.2,5.12L17.79,40.16A4.19,4.19,0,0,1,12.22,40Z"/><path class="cls-3" d="M13.05,59.91,8.51,56a1.76,1.76,0,0,1-.08-2.64l4.71-4.59A2.16,2.16,0,0,1,16,48.67l4.53,3.93a1.76,1.76,0,0,1,.09,2.64l-4.72,4.6A2.15,2.15,0,0,1,13.05,59.91Z"/><path class="cls-3" d="M13.13,77.72,8.6,73.79a1.76,1.76,0,0,1-.09-2.64l4.72-4.6a2.15,2.15,0,0,1,2.87-.08l4.54,3.93A1.77,1.77,0,0,1,20.72,73L16,77.64A2.18,2.18,0,0,1,13.13,77.72Z"/><path class="cls-3" d="M13.71,94.33,9.17,90.4a1.76,1.76,0,0,1-.09-2.64l4.72-4.6a2.15,2.15,0,0,1,2.87-.07L21.21,87a1.76,1.76,0,0,1,.09,2.64l-4.72,4.59A2.16,2.16,0,0,1,13.71,94.33Z"/><image width="582" height="205" transform="translate(6.49 7.16) scale(0.11)" xlink:href="../../logo-white.png"/><text class="cls-4" transform="translate(79.12 19.05)">CARTE DE MEMBRE</text><text class="cls-5" transform="translate(101.59 28.55)">Matricule: 41125SM</text><text class="cls-6" transform="translate(28.24 56.94) scale(1.09 1)">Nom: <tspan class="cls-7" x="22.47" y="0">ZOUNDI</tspan><tspan x="0" y="13" xml:space="preserve">Prénom(s):  </tspan><tspan class="cls-7" x="47.42" y="13">Relwendé</tspan><tspan x="0" y="26">Date de naissance: </tspan><tspan class="cls-7" x="78.1" y="26">17/10/1990</tspan><tspan x="0" y="39">CNI:</tspan><tspan class="cls-7" x="14.97" y="39" xml:space="preserve"> B9820541</tspan><tspan x="0" y="52">Contact:</tspan><tspan class="cls-8" x="33.85" y="52" xml:space="preserve"> 03 70 70 03</tspan></text><path class="cls-3" d="M14.47,38.88h1.15a0,0,0,0,1,0,0V106.4a0,0,0,0,1,0,0h-.09a1.05,1.05,0,0,1-1.05-1.05V38.88A0,0,0,0,1,14.47,38.88Z"/><g class="cls-9"><image width="1245" height="1338" transform="translate(154.39 36.27) scale(0.09)" xlink:href="../../MrZ_docs/ZOUNDI_JACOB%20_compress6.jpeg"/></g><circle class="cls-1" cx="208.9" cy="67.12" r="30.99"/><text class="cls-10" transform="translate(14.85 137.32) scale(1.09 1)">Delivré le: 02/02/2023</text><text class="cls-11" transform="translate(150.32 136.11) scale(1.09 1)">Expire le: 01/05/2023</text><path class="cls-3" d="M30.59,146.37H216a4,4,0,0,1,4,4v5.8a0,0,0,0,1,0,0H26.64a0,0,0,0,1,0,0v-5.8A4,4,0,0,1,30.59,146.37Z"/><text class="cls-12" transform="translate(33.21 153.45) scale(1.09 1)">Carte à usage personnel, utilisable chez nos partenaires de soins</text></g></g></svg>